<svg xmlns="http://www.w3.org/2000/svg" width="207" height="24" viewBox="0 0 207 24" fill="none"><rect x=".379" width="34" height="24" rx="4" fill="#fff"/><path fill-rule="evenodd" clip-rule="evenodd" d="M17.558 16.83a6.803 6.803 0 01-4.398 1.6c-3.745 0-6.781-3-6.781-6.7s3.036-6.7 6.78-6.7c1.679 0 3.215.603 4.399 1.6a6.802 6.802 0 014.398-1.6c3.745 0 6.78 3 6.78 6.7s-3.035 6.7-6.78 6.7a6.802 6.802 0 01-4.398-1.6z" fill="#ED0006"/><path fill-rule="evenodd" clip-rule="evenodd" d="M17.558 16.83a6.653 6.653 0 002.383-5.1c0-2.042-.925-3.87-2.383-5.1a6.802 6.802 0 014.398-1.6c3.745 0 6.781 3 6.781 6.7s-3.036 6.7-6.78 6.7a6.803 6.803 0 01-4.399-1.6z" fill="#F9A000"/><path fill-rule="evenodd" clip-rule="evenodd" d="M17.558 16.83a6.653 6.653 0 002.382-5.1c0-2.042-.924-3.87-2.382-5.1a6.653 6.653 0 00-2.383 5.1c0 2.042.925 3.87 2.383 5.1z" fill="#FF5E00"/><rect x="42.379" width="34" height="24" rx="4" fill="#fff"/><path fill-rule="evenodd" clip-rule="evenodd" d="M53.129 15.858h-2.06l-1.544-6.066c-.074-.279-.23-.525-.458-.642a6.573 6.573 0 00-1.888-.642v-.233h3.318c.458 0 .801.35.858.758l.802 4.376 2.059-5.134h2.002l-3.089 7.583zm4.234 0h-1.945l1.602-7.583h1.945l-1.602 7.583zm4.118-5.482c.058-.409.401-.642.802-.642a3.534 3.534 0 011.888.35l.343-1.633a4.8 4.8 0 00-1.773-.351c-1.888 0-3.262 1.05-3.262 2.508 0 1.11.973 1.692 1.66 2.042.743.35 1.03.584.972.934 0 .524-.572.758-1.144.758a4.789 4.789 0 01-2.002-.467l-.344 1.633a5.47 5.47 0 002.117.409c2.117.058 3.433-.992 3.433-2.567 0-1.984-2.69-2.1-2.69-2.974zm9.498 5.482l-1.545-7.583h-1.659a.863.863 0 00-.801.583l-2.86 7h2.002l.4-1.108h2.46l.23 1.108h1.773zm-2.918-5.54l.572 2.857H67.03l1.03-2.858z" fill="#172B85"/><rect x="84.379" width="34" height="24" rx="4" fill="#1F72CD"/><path fill-rule="evenodd" clip-rule="evenodd" d="M90.474 8.5l-3.181 7.247h3.808l.472-1.156h1.08l.472 1.156h4.191v-.882l.374.882h2.168l.374-.9v.9h8.718l1.06-1.126.992 1.126 4.478.01-3.191-3.613L115.48 8.5h-4.408l-1.032 1.105-.962-1.105h-9.484l-.814 1.87-.833-1.87h-3.8v.852l-.423-.852h-3.25zm.737 1.029h1.856l2.11 4.914V9.53h2.034l1.63 3.523 1.502-3.523h2.023v5.2h-1.231l-.01-4.075-1.795 4.075h-1.102l-1.804-4.075v4.075H93.89l-.48-1.166h-2.595l-.479 1.165H88.98l2.231-5.199zm17.288 0h-5.007v5.197h4.929l1.589-1.722 1.531 1.722h1.6l-2.326-2.583 2.326-2.614h-1.531l-1.58 1.703-1.531-1.703zm-16.385.88l-.855 2.077h1.709l-.854-2.077zm12.615 1.146v-.95h3.123l1.363 1.518-1.423 1.526h-3.063v-1.036h2.731v-1.058h-2.731z" fill="#fff"/><rect x="126.379" width="34" height="24" rx="4" fill="#fff"/><path fill-rule="evenodd" clip-rule="evenodd" d="M142.217 19.3h2.596c4.053 0 7.282-3.215 7.409-7.187v-.063c-.064-4.034-3.356-7.312-7.409-7.25h-2.912c-3.863.127-6.902 3.405-6.776 7.314 0 3.908 3.166 7.123 7.092 7.186zm-5.825-7.25c0-3.278 2.723-5.988 6.015-5.988 3.293 0 6.015 2.71 6.015 5.988 0 3.278-2.722 5.99-6.015 5.99-3.292 0-6.015-2.711-6.015-5.99zm6.965 4.035V8.079c2.216.567 3.609 2.774 3.039 4.98a4.113 4.113 0 01-3.039 3.026zm-4.876-5.043a4.142 4.142 0 002.976 5.043V8.079a4.156 4.156 0 00-2.976 2.963z" fill="#0079BE"/><rect x="168.379" width="34" height="24" rx="4" fill="#fff"/><path fill-rule="evenodd" clip-rule="evenodd" d="M182.993 18.448l.221-1.449-.492-.012h-2.347l1.631-10.693a.143.143 0 01.046-.084.13.13 0 01.087-.033h3.959c1.314 0 2.221.282 2.695.84.222.262.363.536.432.837.071.316.072.693.003 1.153l-.006.034v.295l.222.13c.187.102.336.22.45.354.19.224.313.508.365.845.053.347.035.76-.052 1.227-.102.538-.265 1.006-.487 1.389a2.813 2.813 0 01-.77.872 3.06 3.06 0 01-1.037.484 5.024 5.024 0 01-1.297.155h-.308a.916.916 0 00-.602.229.969.969 0 00-.314.579l-.024.13-.39 2.555-.017.093c-.005.03-.013.045-.025.055a.06.06 0 01-.04.015h-1.903z" fill="#28356A"/><path fill-rule="evenodd" clip-rule="evenodd" d="M189.654 9.075a5.966 5.966 0 01-.04.24c-.522 2.77-2.308 3.727-4.59 3.727h-1.161a.571.571 0 00-.558.494l-.763 5.003a.304.304 0 00.294.355h2.06a.5.5 0 00.489-.431l.021-.109.387-2.544.025-.14a.501.501 0 01.49-.432h.308c1.996 0 3.559-.838 4.015-3.261.191-1.013.092-1.859-.413-2.453a1.963 1.963 0 00-.564-.45z" fill="#298FC2"/><path fill-rule="evenodd" clip-rule="evenodd" d="M189.108 8.85a4.091 4.091 0 00-.508-.117 6.243 6.243 0 00-1.023-.077h-3.104a.481.481 0 00-.214.05.51.51 0 00-.275.383l-.66 4.321-.019.126a.57.57 0 01.558-.494h1.161c2.282 0 4.068-.957 4.59-3.727.015-.082.029-.162.04-.24a2.726 2.726 0 00-.546-.225z" fill="#22284F"/><path fill-rule="evenodd" clip-rule="evenodd" d="M183.985 9.089a.506.506 0 01.275-.382.476.476 0 01.214-.05h3.103c.367 0 .711.024 1.024.077a4.636 4.636 0 01.508.116l.117.037c.154.053.297.116.429.188.155-1.024-.001-1.721-.537-2.353-.59-.695-1.656-.992-3.02-.992h-3.959a.572.572 0 00-.559.494l-1.649 10.804a.348.348 0 00.335.406h2.445l1.274-8.345z" fill="#28356A"/></svg>